<svg xmlns="http://www.w3.org/2000/svg" viewBox="0 0 100 100" width="100" height="100">
  <!-- Left ear -->
  <ellipse cx="20" cy="26" rx="13" ry="10" fill="black" transform="rotate(-20 20 26)"/>
  <!-- Right ear -->
  <ellipse cx="80" cy="26" rx="13" ry="10" fill="black" transform="rotate(20 80 26)"/>
  <!-- Head with eyes punched out (evenodd) -->
  <path fill-rule="evenodd" fill="black" d="
    M 50 17 A 38 38 0 1 1 49.999 17 Z
    M 37 42 A 6 6 0 1 0 37.001 42 Z
    M 63 42 A 6 6 0 1 0 63.001 42 Z
  "/>
  <!-- Snout with nostrils punched out (evenodd) -->
  <path fill-rule="evenodd" fill="black" d="
    M 66 66 A 16 11 0 1 1 65.999 66 Z
    M 43 63.5 A 3.5 3.5 0 1 0 43.001 63.5 Z
    M 57 63.5 A 3.5 3.5 0 1 0 57.001 63.5 Z
  "/>
</svg>
